<svg id="Layer_1" data-name="Layer 1" xmlns="http://www.w3.org/2000/svg" viewBox="0 0 178.79 99.25"><defs><style>.cls-1{fill:none;stroke:#000;stroke-miterlimit:10;stroke-width:0.73px;}</style></defs><title>paper-trail</title><path class="cls-1" d="M70,191.79c15.46.06,30.58-4.27,45.31-9,9.86-3.15,19.76-6.52,28.63-11.86a73.08,73.08,0,0,0,26.14-27.07c5.88-10.61,8.87-24.23,2.65-34.66S152,94.16,140.4,93.34c-5.16-.36-10.56.5-14.85,3.39-3.85,2.59-6.52,6.6-8.56,10.76-3.63,7.38-6.59,17.08-5.68,25.41.8,7.43,5.15,14.89,10.29,20.15,6.61,6.75,15.44,11.07,24.62,13.29,24.29,5.86,51.58-3.56,67.08-23.15a132,132,0,0,0,9.77-15l9.67-16.38c3.7-6.26,8.76-13.32,16-13.14" transform="translate(-69.98 -92.9)"/></svg>