<svg id="Layer_1" data-name="Layer 1" xmlns="http://www.w3.org/2000/svg" viewBox="0 0 225.6 159.93"><defs><style>.cls-1{fill:none;stroke:#000;stroke-miterlimit:10;}</style></defs><title>plane-trail</title><path class="cls-1" d="M16.26,246.13c21-2.75,40.7-11.39,59.82-20.46,12.8-6.07,25.61-12.45,36.67-21.31a100.18,100.18,0,0,0,30.5-41.5c6-15.48,7.6-34.49-2.73-47.5S109.59,98.71,93.77,99.72c-7.06.45-14.23,2.61-19.52,7.31-4.74,4.21-7.63,10.14-9.64,16.16C61,133.86,58.8,147.56,61.55,158.7,64,168.63,71.26,178,79.2,184.14c10.2,8,23,12.2,35.82,13.53,34,3.51,69.31-14.26,86.75-43.67,4.16-7,7.35-14.56,10.52-22.08l10.13-24c3.86-9.16,9.44-19.66,19.32-20.74" transform="translate(-16.2 -86.69)"/></svg>